<?xml version="1.0" standalone="no"?>
<!DOCTYPE svg PUBLIC "-//W3C//DTD SVG 20010904//EN"
 "http://www.w3.org/TR/2001/REC-SVG-20010904/DTD/svg10.dtd">
<svg version="1.0" xmlns="http://www.w3.org/2000/svg"
 width="512.000000pt" height="512.000000pt" viewBox="0 0 512.000000 512.000000"
 preserveAspectRatio="xMidYMid meet">
<metadata>
Created by potrace 1.16, written by Peter Selinger 2001-2019
</metadata>
<g transform="translate(0.000000,512.000000) scale(0.100000,-0.100000)"
fill="#000000" stroke="none">
<path d="M2498 4171 c-25 -10 -61 -29 -80 -42 -44 -31 -183 -151 -183 -159 0
-3 -16 -26 -36 -50 -69 -87 -153 -244 -188 -353 -7 -20 -16 -35 -19 -33 -4 2
-8 -10 -9 -27 0 -18 -8 -75 -16 -127 -8 -52 -13 -97 -11 -99 2 -2 23 13 46 35
34 31 43 46 45 77 4 50 48 131 93 169 45 37 147 86 278 133 130 46 190 53 268
30 85 -24 266 -103 284 -124 12 -14 21 -16 43 -8 26 8 16 14 -120 69 -258 105
-301 118 -358 107 -28 -5 -142 -40 -254 -79 -113 -38 -206 -68 -208 -66 -2 1
6 24 17 49 17 37 27 48 58 57 20 6 43 14 51 16 11 4 10 8 -5 18 -18 14 -17 17
20 70 74 108 189 206 242 206 9 0 37 -22 63 -50 50 -54 72 -60 120 -35 48 24
56 86 17 131 l-23 28 4 -31 c9 -57 -81 -98 -120 -55 -36 39 -6 112 46 112 18
0 19 2 7 10 -11 7 -6 10 20 10 74 -1 204 -72 319 -175 l56 -50 -43 52 c-50 61
-148 141 -212 173 -61 31 -151 36 -212 11z"/>
<path d="M3136 3883 c30 -46 104 -177 110 -195 6 -19 39 -24 49 -8 3 6 0 13
-8 16 -8 3 -47 52 -87 110 -39 57 -74 104 -77 104 -3 0 3 -12 13 -27z"/>
<path d="M1746 3872 c2 -2 -1 -13 -7 -23 -14 -26 -48 -24 -59 4 -5 14 -9 16
-9 6 -1 -19 40 -59 61 -59 31 0 45 50 20 70 -5 4 -7 5 -6 2z"/>
<path d="M3335 3850 c-3 -5 -1 -10 4 -10 6 0 11 5 11 10 0 6 -2 10 -4 10 -3 0
-8 -4 -11 -10z"/>
<path d="M1477 3594 c-90 -20 -158 -47 -223 -90 -54 -36 -124 -119 -124 -147
0 -9 -4 -18 -10 -22 -5 -3 -7 -12 -3 -20 3 -8 0 -15 -6 -15 -6 0 -8 -12 -5
-32 4 -25 3 -29 -5 -18 -8 11 -11 1 -11 -41 0 -137 95 -389 215 -569 37 -56
69 -99 72 -96 3 3 2 27 -2 53 -5 26 -10 40 -12 31 -3 -10 -8 -18 -13 -18 -27
0 -141 207 -185 335 -35 100 -28 346 8 345 7 0 21 -7 31 -15 48 -36 119 -5
119 50 0 37 -19 53 -26 22 -8 -30 -51 -51 -77 -37 -35 19 -44 48 -23 77 10 14
23 34 29 44 24 41 52 64 119 94 92 43 199 66 349 75 l121 7 -135 1 c-84 0
-161 -5 -203 -14z"/>
<path d="M3425 3583 c-97 -12 -330 -83 -406 -123 -18 -10 -15 -14 38 -40 32
-16 94 -58 138 -93 240 -192 363 -498 334 -829 -15 -174 -57 -300 -141 -420
-38 -53 -43 -68 -44 -117 0 -35 -13 -92 -33 -151 -18 -52 -33 -99 -34 -104 -1
-6 -27 -29 -57 -52 -55 -42 -120 -107 -75 -74 11 7 37 30 58 49 20 19 37 32
37 29 0 -3 -13 -36 -30 -73 -45 -99 -49 -92 73 -120 83 -18 102 -19 61 -1 -17
8 -34 21 -37 30 -18 47 100 195 197 246 41 22 48 23 81 11 75 -27 123 14 144
123 12 64 122 333 151 368 l17 22 22 -39 c19 -37 20 -38 15 -10 -9 45 -59 193
-84 248 -32 71 -44 61 -36 -30 8 -100 -3 -142 -93 -352 -38 -91 -68 -168 -66
-172 10 -14 -17 -67 -40 -79 -18 -9 -31 -10 -54 -2 -28 10 -36 8 -74 -18 -60
-40 -201 -115 -196 -104 2 5 10 25 18 44 11 29 29 44 102 84 65 36 94 59 110
85 18 31 19 34 3 19 -11 -9 -31 -19 -46 -23 -26 -7 -26 -6 -18 32 5 21 31 85
58 143 27 58 61 139 76 181 34 93 88 155 130 147 l26 -5 0 83 c0 46 -4 84 -8
84 -5 0 -19 -12 -33 -26 -20 -22 -101 -81 -144 -106 -6 -4 -9 12 -7 43 2 27 9
49 14 49 25 0 203 159 263 233 65 82 170 274 180 332 3 17 -5 3 -18 -30 -46
-114 -125 -232 -231 -344 -68 -71 -172 -161 -187 -161 -5 0 -9 17 -9 39 0 33
6 43 37 67 32 24 34 28 17 34 -13 5 -30 38 -52 101 -57 159 -155 320 -261 428
-104 106 -117 156 -48 178 29 10 44 10 60 1 49 -26 188 -152 207 -186 21 -41
25 -40 10 5 -6 16 -60 76 -125 137 -63 59 -115 111 -115 116 0 5 10 10 23 12
16 3 41 -13 89 -55 61 -53 66 -55 55 -28 -14 39 7 64 70 81 126 36 288 -14
385 -118 46 -49 53 -64 62 -127 2 -16 2 -4 1 27 -7 142 -122 257 -294 294 -61
13 -193 16 -266 7z"/>
<path d="M1928 3507 c-34 -20 -41 -32 -67 -112 -17 -49 -42 -136 -56 -192 -14
-56 -29 -113 -35 -127 -5 -14 -8 -26 -6 -26 10 0 76 122 76 142 0 26 31 153
58 237 12 39 25 59 44 70 15 9 28 19 28 24 0 9 1 10 -42 -16z"/>
<path d="M3927 3470 c22 -25 50 -61 62 -80 12 -19 21 -30 21 -24 0 16 -52 85
-91 119 -27 23 -25 20 8 -15z"/>
<path d="M2507 3430 c-187 -23 -379 -121 -514 -262 -72 -75 -163 -218 -139
-218 3 0 33 6 68 14 35 8 100 17 145 21 66 6 85 11 100 28 17 21 17 21 0 8
-15 -12 -20 -12 -33 1 -28 28 -7 66 75 131 90 71 185 118 252 125 44 4 49 3
49 -16 0 -11 -7 -28 -16 -36 -13 -13 -13 -16 -1 -16 8 0 45 29 81 65 37 36 94
86 128 110 56 42 58 45 32 45 -16 0 -58 2 -94 4 -36 3 -96 1 -133 -4z"/>
<path d="M2823 3321 c-43 -32 -88 -70 -101 -83 l-22 -25 53 -12 c151 -34 308
-153 372 -285 36 -73 65 -182 65 -249 0 -69 -31 -191 -68 -266 -38 -78 -120
-176 -178 -212 -19 -11 -54 -51 -78 -89 -125 -192 -398 -409 -701 -555 -294
-142 -457 -189 -655 -189 -103 1 -135 4 -184 22 -113 42 -154 90 -187 222 -19
73 -20 91 -9 161 20 141 65 250 192 469 13 23 -18 -4 -89 -75 -90 -90 -117
-124 -146 -185 -51 -106 -70 -195 -65 -306 5 -118 44 -204 119 -264 74 -58
141 -81 301 -102 101 -14 253 -1 374 31 39 11 96 22 128 26 52 7 60 5 82 -16
l25 -24 -26 47 c-28 50 -28 50 28 68 20 6 63 27 94 46 63 38 66 38 94 23 11
-6 50 -22 86 -35 49 -19 63 -21 54 -10 -20 24 -7 42 53 70 73 35 155 51 364
72 136 14 178 15 192 6 17 -10 25 -5 68 46 26 32 58 75 71 95 13 21 31 37 41
37 17 0 17 -3 -2 -66 -21 -72 -17 -99 6 -42 16 37 36 144 36 190 l0 26 -87
-50 c-104 -60 -205 -102 -311 -129 -86 -22 -259 -36 -316 -25 l-37 7 38 31
c58 46 71 51 178 65 55 7 131 22 169 34 87 26 221 93 303 152 l63 44 -30 44
c-16 24 -56 77 -90 117 l-61 72 48 56 48 56 57 -63 57 -63 33 16 c18 9 52 30
75 47 44 32 64 78 77 176 6 39 6 39 -4 7 -15 -47 -126 -113 -143 -85 -3 5 -7
56 -8 112 -2 131 -21 215 -71 315 -46 94 -66 122 -135 198 -51 56 -53 60 -53
115 0 106 15 121 83 87 94 -49 177 -132 249 -248 45 -73 49 -67 9 12 -42 83
-110 171 -180 233 -68 60 -224 159 -252 159 -10 0 -53 -27 -96 -59z m107 -117
l0 -46 -32 6 c-18 4 -39 13 -47 21 -13 13 -12 18 9 40 13 14 34 25 47 25 21 0
23 -5 23 -46z"/>
<path d="M3500 3376 c0 -2 8 -10 18 -17 15 -13 16 -12 3 4 -13 16 -21 21 -21
13z"/>
<path d="M3572 3318 c22 -19 36 -55 77 -197 28 -95 55 -210 61 -255 7 -44 12
-82 14 -83 1 -1 23 26 50 59 27 34 44 58 38 55 -13 -9 -89 138 -135 261 -42
110 -56 133 -99 162 l-33 22 27 -24z"/>
<path d="M4021 3304 c0 -11 3 -14 6 -6 3 7 2 16 -1 19 -3 4 -6 -2 -5 -13z"/>
<path d="M1659 3263 c-46 -45 -54 -60 -125 -248 -84 -222 -108 -325 -98 -423
6 -61 7 -62 25 -46 14 12 19 31 19 68 1 133 121 511 205 642 19 30 32 54 29
54 -3 0 -28 -21 -55 -47z"/>
<path d="M4033 3235 c0 -27 2 -38 4 -22 2 15 2 37 0 50 -2 12 -4 0 -4 -28z"/>
<path d="M4021 3154 c0 -11 3 -14 6 -6 3 7 2 16 -1 19 -3 4 -6 -2 -5 -13z"/>
<path d="M4088 3103 c-16 -118 -136 -411 -188 -458 -16 -15 -14 -27 36 -180
121 -375 146 -618 84 -800 -27 -80 -60 -132 -112 -180 l-43 -40 41 45 c68 75
72 88 11 33 -110 -99 -238 -138 -462 -138 -134 0 -154 -4 -155 -31 0 -12 0
-12 275 6 222 15 323 47 405 129 84 84 117 219 106 431 -7 146 -53 405 -90
505 -40 110 -37 133 38 354 53 154 68 231 64 316 l-3 60 -7 -52z"/>
<path d="M2520 3086 c-83 -18 -149 -54 -211 -116 -64 -64 -93 -113 -115 -203
-29 -113 -3 -249 69 -349 183 -257 605 -238 743 34 135 266 -7 573 -293 633
-80 17 -119 17 -193 1z m47 -72 c-3 -4 0 -16 8 -28 19 -27 19 -119 0 -155 -39
-77 -134 -123 -220 -107 -32 6 -35 10 -35 41 0 54 58 154 114 196 45 34 91 56
125 58 8 1 11 -2 8 -5z m130 0 c-3 -3 -12 -4 -19 -1 -8 3 -5 6 6 6 11 1 17 -2
13 -5z m119 -55 c3 -6 -5 -3 -20 6 -14 10 -26 19 -26 22 0 7 39 -17 46 -28z
m132 -144 c23 -43 27 -62 27 -135 0 -98 -17 -140 -82 -201 -136 -130 -356
-128 -478 3 -35 38 -36 39 -5 12 67 -60 116 -79 210 -79 76 0 91 3 139 30 99
55 153 139 159 250 5 88 -8 139 -54 207 l-36 53 47 -45 c26 -25 59 -67 73 -95z"/>
<path d="M1805 2824 c-22 -8 -51 -24 -65 -35 -24 -19 -24 -20 -2 -9 13 6 51
22 85 35 66 26 50 33 -18 9z"/>
<path d="M1954 2735 c-119 -39 -199 -78 -208 -100 -10 -27 -7 -98 9 -191 12
-66 29 -116 67 -194 45 -94 61 -115 147 -200 107 -105 194 -161 331 -211 47
-17 81 -26 75 -21 -5 5 -37 19 -69 31 -91 34 -214 111 -265 167 -163 179 -223
456 -119 550 55 50 107 52 130 4 13 -26 14 -19 10 68 -1 53 -4 104 -5 114 -2
14 -15 12 -103 -17z"/>
<path d="M1063 2635 c0 -30 -33 -65 -61 -65 -8 0 -25 8 -36 18 -20 17 -20 17
-6 -6 8 -13 29 -32 46 -43 31 -19 31 -19 58 2 29 23 34 59 12 98 l-13 24 0
-28z"/>
<path d="M941 2624 c0 -11 3 -14 6 -6 3 7 2 16 -1 19 -3 4 -6 -2 -5 -13z"/>
<path d="M1532 2440 c-149 -133 -246 -278 -308 -462 -19 -55 -34 -103 -34
-106 0 -4 19 25 43 64 88 142 186 254 222 254 8 0 25 -15 36 -32 25 -39 21
-26 -22 78 l-32 77 23 19 c12 10 25 18 29 18 9 0 116 -252 148 -347 17 -51 33
-78 51 -91 47 -33 58 -36 35 -11 -12 13 -37 70 -56 125 -20 56 -49 131 -66
167 -43 91 -41 131 5 155 18 9 25 7 41 -11 11 -12 28 -35 36 -52 21 -39 21
-29 1 26 -8 24 -23 84 -33 132 l-17 88 -102 -91z"/>
<path d="M4208 2439 c6 -38 -21 -69 -58 -69 -15 0 -33 7 -40 15 -14 17 -35 21
-25 5 4 -6 1 -18 -6 -26 -6 -8 -9 -17 -6 -20 3 -3 11 4 17 16 12 22 12 22 25
2 22 -30 71 -47 100 -34 31 14 41 61 21 101 -22 41 -33 46 -28 10z"/>
<path d="M1200 2430 c-9 -6 -10 -10 -3 -10 6 0 15 5 18 10 8 12 4 12 -15 0z"/>
<path d="M1063 2385 c0 -8 4 -12 9 -9 5 3 6 10 3 15 -9 13 -12 11 -12 -6z"/>
<path d="M2202 2284 c75 -97 197 -185 328 -234 76 -28 89 -43 64 -72 -11 -12
4 -3 32 20 28 24 66 61 83 82 l32 40 -103 0 c-176 0 -287 43 -410 158 l-72 67
46 -61z"/>
<path d="M1710 2221 c0 -6 4 -13 10 -16 6 -3 7 1 4 9 -7 18 -14 21 -14 7z"/>
<path d="M1787 2081 c45 -90 133 -181 258 -266 47 -33 100 -72 118 -86 l31
-27 42 21 43 20 -75 33 c-189 82 -334 200 -442 360 -7 10 4 -14 25 -55z"/>
<path d="M3588 1963 c7 -3 16 -2 19 1 4 3 -2 6 -13 5 -11 0 -14 -3 -6 -6z"/>
<path d="M1620 1863 c0 -14 305 -243 323 -243 3 0 7 6 10 14 5 13 -44 49 -305
220 -16 10 -28 14 -28 9z"/>
<path d="M1980 1716 c0 -3 9 -10 20 -16 11 -6 20 -8 20 -6 0 3 -9 10 -20 16
-11 6 -20 8 -20 6z"/>
<path d="M3726 1565 c-11 -8 -15 -15 -9 -15 6 0 16 7 23 15 16 19 11 19 -14 0z"/>
<path d="M2935 1440 c-44 -21 -136 -57 -204 -80 -152 -52 -154 -52 -387 24
-177 58 -244 69 -244 40 0 -21 62 -113 114 -171 38 -42 44 -45 63 -33 21 14
21 14 -13 55 -41 50 -42 63 -9 71 35 9 80 -1 229 -48 129 -40 130 -41 240 -34
104 7 109 6 95 -11 -8 -9 7 -1 33 20 42 34 151 157 171 192 11 21 3 18 -88
-25z"/>
<path d="M3078 1326 c-49 -92 -314 -229 -500 -261 -36 -6 -38 -5 -39 22 0 27
-1 28 -11 6 -13 -28 -53 -30 -82 -5 -20 17 -20 17 -5 -8 9 -13 28 -33 42 -44
26 -19 28 -19 109 -2 170 35 202 49 511 209 70 37 136 67 147 67 43 0 17 17
-44 28 -94 18 -113 16 -128 -12z"/>
<path d="M2320 1215 c17 -21 3 -55 -24 -55 -19 0 -21 -4 -18 -34 3 -27 12 -38
45 -56 23 -13 44 -27 47 -30 3 -4 15 6 28 22 23 27 23 28 3 28 -11 0 -32 10
-47 23 -24 21 -25 25 -13 45 11 17 16 19 29 9 8 -6 -1 6 -19 26 -34 36 -56 52
-31 22z"/>
<path d="M3277 1135 c4 -26 1 -36 -18 -49 -31 -21 -45 -20 -69 4 -11 11 -20
15 -20 9 0 -6 13 -24 29 -40 35 -35 85 -40 101 -10 13 26 13 78 -1 87 -8 5 -8
9 1 14 8 5 5 9 -8 12 -18 5 -20 2 -15 -27z"/>
<path d="M2650 881 c0 -11 -12 -33 -26 -50 -35 -42 -84 -43 -125 -2 l-29 29 6
-26 c9 -42 37 -75 78 -96 32 -16 44 -17 77 -7 42 13 71 46 107 125 l23 48 -27
-21 c-33 -26 -39 -26 -64 -1 -19 19 -20 19 -20 1z"/>
<path d="M2440 850 c-9 -6 -10 -10 -3 -10 6 0 15 5 18 10 8 12 4 12 -15 0z"/>
</g>
</svg>